<?xml version="1.0" standalone="no"?>
<!DOCTYPE svg PUBLIC "-//W3C//DTD SVG 20010904//EN"
 "http://www.w3.org/TR/2001/REC-SVG-20010904/DTD/svg10.dtd">
<svg version="1.0" xmlns="http://www.w3.org/2000/svg"
 width="600.000000pt" height="500.000000pt" viewBox="0 0 600.000000 500.000000"
 preserveAspectRatio="xMidYMid meet">

<g transform="translate(0.000000,500.000000) scale(0.100000,-0.100000)"
fill="#000000" stroke="none">
<path d="M1270 3416 c0 -3 -70 -333 -155 -734 -85 -401 -155 -734 -155 -741 0
-10 92 -12 423 -8 393 3 428 5 505 25 349 91 553 360 592 777 17 189 -11 371
-73 478 -35 58 -107 124 -170 152 -107 49 -176 55 -587 55 -209 0 -380 -2
-380 -4z m668 -172 c56 -39 66 -137 37 -361 -55 -416 -164 -700 -297 -769 -33
-17 -178 -32 -178 -19 0 10 239 1123 246 1148 5 14 18 17 87 17 59 0 89 -5
105 -16z"/>
<path d="M4440 2245 c0 -208 1 -215 20 -215 19 0 20 7 20 215 0 208 -1 215
-20 215 -19 0 -20 -7 -20 -215z"/>
<path d="M2585 2426 c-72 -31 -113 -127 -100 -231 14 -118 108 -187 223 -165
93 17 144 88 144 201 0 134 -65 209 -182 208 -30 0 -69 -6 -85 -13z m176 -62
c47 -48 57 -173 19 -244 -16 -30 -64 -50 -120 -50 -43 0 -56 5 -80 28 -75 75
-60 244 24 287 48 24 121 15 157 -21z"/>
<path d="M2950 2235 c0 -198 1 -205 20 -205 19 0 20 7 20 168 l0 167 110 -167
c94 -144 113 -168 135 -168 l25 0 0 205 c0 198 -1 205 -20 205 -19 0 -20 -7
-20 -172 l0 -171 -112 171 c-92 142 -115 172 -135 172 l-23 0 0 -205z"/>
<path d="M3784 2425 c-4 -9 -2 -21 4 -27 15 -15 44 -1 40 19 -4 23 -36 29 -44
8z"/>
<path d="M3451 2288 c28 -79 60 -169 71 -200 16 -47 24 -58 41 -58 19 0 27 15
58 103 21 56 53 146 73 200 l35 97 -23 0 c-22 0 -29 -15 -83 -171 l-60 -171
-58 171 c-53 153 -62 171 -82 171 -22 0 -21 -3 28 -142z"/>
<path d="M3940 2366 c-6 -19 -19 -36 -30 -39 -26 -7 -26 -27 -1 -27 18 0 20
-10 23 -116 3 -108 5 -117 27 -135 29 -24 101 -27 101 -4 0 10 -10 15 -29 15
-49 0 -61 29 -61 142 l0 98 45 0 c33 0 45 4 45 15 0 11 -12 15 -45 15 -45 0
-45 0 -45 35 0 45 -15 45 -30 1z"/>
<path d="M4194 2331 c-42 -11 -54 -19 -48 -36 4 -10 12 -12 31 -4 35 13 99 11
111 -4 6 -7 12 -26 14 -42 3 -29 2 -30 -59 -37 -67 -7 -117 -28 -127 -53 -15
-39 -6 -83 20 -104 35 -28 102 -28 137 -1 14 11 27 20 30 20 3 0 7 -9 10 -20
3 -11 10 -20 16 -20 14 0 15 244 1 270 -6 11 -27 24 -48 30 -41 11 -44 11 -88
1z m106 -185 c0 -47 -27 -76 -76 -83 -46 -6 -74 13 -74 51 0 40 39 64 108 65
41 1 42 0 42 -33z"/>
<path d="M4655 2326 c-77 -34 -106 -134 -66 -223 24 -51 63 -73 128 -73 67 0
93 9 93 31 0 16 -4 18 -27 12 -16 -5 -48 -8 -72 -8 -35 1 -48 6 -67 28 -14 16
-24 41 -24 58 l0 29 100 0 100 0 0 35 c0 51 -26 94 -65 111 -42 17 -61 17
-100 0z m104 -52 c12 -15 21 -35 21 -45 0 -17 -9 -19 -80 -19 -71 0 -80 2 -80
19 0 10 9 30 21 45 16 20 29 26 59 26 30 0 43 -6 59 -26z"/>
<path d="M3780 2180 c0 -143 1 -150 20 -150 19 0 20 7 20 150 0 143 -1 150
-20 150 -19 0 -20 -7 -20 -150z"/>
</g>
</svg>
